<svg preserveAspectRatio="none" width="100%" height="100%" overflow="visible" style="display: block;" viewBox="0 0 58 58" fill="none" xmlns="http://www.w3.org/2000/svg">
<g id="LinkedIn Icons">
<circle id="Ellipse 3" cx="29" cy="29" r="29" fill="var(--fill-0, #D9D9D9)"/>
<g id="Frame">
<path id="Vector" d="M24.1 17.3333H33.9C37.6333 17.3333 40.6667 20.3667 40.6667 24.1V33.9C40.6667 35.6946 39.9538 37.4158 38.6848 38.6848C37.4158 39.9538 35.6946 40.6667 33.9 40.6667H24.1C20.3667 40.6667 17.3333 37.6333 17.3333 33.9V24.1C17.3333 22.3054 18.0462 20.5842 19.3152 19.3152C20.5842 18.0462 22.3054 17.3333 24.1 17.3333ZM23.8667 19.6667C22.7528 19.6667 21.6845 20.1092 20.8968 20.8968C20.1092 21.6845 19.6667 22.7528 19.6667 23.8667V34.1333C19.6667 36.455 21.545 38.3333 23.8667 38.3333H34.1333C35.2472 38.3333 36.3155 37.8908 37.1032 37.1032C37.8908 36.3155 38.3333 35.2472 38.3333 34.1333V23.8667C38.3333 21.545 36.455 19.6667 34.1333 19.6667H23.8667ZM35.125 21.4167C35.5118 21.4167 35.8827 21.5703 36.1562 21.8438C36.4297 22.1173 36.5833 22.4882 36.5833 22.875C36.5833 23.2618 36.4297 23.6327 36.1562 23.9062C35.8827 24.1797 35.5118 24.3333 35.125 24.3333C34.7382 24.3333 34.3673 24.1797 34.0938 23.9062C33.8203 23.6327 33.6667 23.2618 33.6667 22.875C33.6667 22.4882 33.8203 22.1173 34.0938 21.8438C34.3673 21.5703 34.7382 21.4167 35.125 21.4167ZM29 23.1667C30.5471 23.1667 32.0308 23.7812 33.1248 24.8752C34.2188 25.9692 34.8333 27.4529 34.8333 29C34.8333 30.5471 34.2188 32.0308 33.1248 33.1248C32.0308 34.2188 30.5471 34.8333 29 34.8333C27.4529 34.8333 25.9692 34.2188 24.8752 33.1248C23.7812 32.0308 23.1667 30.5471 23.1667 29C23.1667 27.4529 23.7812 25.9692 24.8752 24.8752C25.9692 23.7812 27.4529 23.1667 29 23.1667ZM29 25.5C28.0717 25.5 27.1815 25.8687 26.5251 26.5251C25.8687 27.1815 25.5 28.0717 25.5 29C25.5 29.9283 25.8687 30.8185 26.5251 31.4749C27.1815 32.1313 28.0717 32.5 29 32.5C29.9283 32.5 30.8185 32.1313 31.4749 31.4749C32.1313 30.8185 32.5 29.9283 32.5 29C32.5 28.0717 32.1313 27.1815 31.4749 26.5251C30.8185 25.8687 29.9283 25.5 29 25.5Z" fill="var(--fill-0, black)"/>
</g>
</g>
</svg>
