<svg preserveAspectRatio="none" width="100%" height="100%" overflow="visible" style="display: block;" viewBox="0 0 58 58" fill="none" xmlns="http://www.w3.org/2000/svg">
<g id="Instagram Icon">
<circle id="Ellipse 1" cx="29" cy="29" r="29" fill="var(--fill-0, #D9D9D9)"/>
<g id="Frame">
<path id="Vector" d="M37.1667 18.5C37.7855 18.5 38.379 18.7458 38.8166 19.1834C39.2542 19.621 39.5 20.2145 39.5 20.8333V37.1667C39.5 37.7855 39.2542 38.379 38.8166 38.8166C38.379 39.2542 37.7855 39.5 37.1667 39.5H20.8333C20.2145 39.5 19.621 39.2542 19.1834 38.8166C18.7458 38.379 18.5 37.7855 18.5 37.1667V20.8333C18.5 20.2145 18.7458 19.621 19.1834 19.1834C19.621 18.7458 20.2145 18.5 20.8333 18.5H37.1667ZM36.5833 36.5833V30.4C36.5833 29.3913 36.1826 28.4239 35.4694 27.7106C34.7561 26.9974 33.7887 26.5967 32.78 26.5967C31.7883 26.5967 30.6333 27.2033 30.0733 28.1133V26.8183H26.8183V36.5833H30.0733V30.8317C30.0733 29.9333 30.7967 29.1983 31.695 29.1983C32.1282 29.1983 32.5436 29.3704 32.8499 29.6767C33.1563 29.983 33.3283 30.3985 33.3283 30.8317V36.5833H36.5833ZM23.0267 24.9867C23.5465 24.9867 24.045 24.7802 24.4126 24.4126C24.7802 24.045 24.9867 23.5465 24.9867 23.0267C24.9867 21.9417 24.1117 21.055 23.0267 21.055C22.5037 21.055 22.0022 21.2627 21.6325 21.6325C21.2627 22.0022 21.055 22.5037 21.055 23.0267C21.055 24.1117 21.9417 24.9867 23.0267 24.9867ZM24.6483 36.5833V26.8183H21.4167V36.5833H24.6483Z" fill="var(--fill-0, black)"/>
</g>
</g>
</svg>
